<svg width="77" height="37" viewBox="0 0 77 37" fill="none" xmlns="http://www.w3.org/2000/svg">
<path fill-rule="evenodd" clip-rule="evenodd" d="M18.1872 27.7509C23.0788 27.7509 27.0442 23.8285 27.0442 18.9899C27.0442 14.1514 23.0788 10.229 18.1872 10.229C13.2957 10.229 9.33026 14.1514 9.33026 18.9899C9.33026 23.8285 13.2957 27.7509 18.1872 27.7509ZM18.1872 36.9799C28.2318 36.9799 36.3745 28.9255 36.3745 18.9899C36.3745 9.05434 28.2318 0.999939 18.1872 0.999939C8.14271 0.999939 0 9.05434 0 18.9899C0 28.9255 8.14271 36.9799 18.1872 36.9799Z" fill="white"/>
<rect x="39.6299" y="0.493591" width="9.25869" height="35.985" fill="white"/>
<path d="M75.9271 0.493592L62.9 0.493591L48.5 14.5L58 18.5L75.9271 0.493592Z" fill="white"/>
<path d="M77.0002 36.4785H63.9173L45.3999 17.9509L51.9078 11.463L77.0002 36.4785Z" fill="white"/>
</svg>
