<svg width="53" height="47" viewBox="0 0 53 47" fill="none" xmlns="http://www.w3.org/2000/svg">
<path d="M26.2755 28.0641C28.8633 28.0641 30.9611 25.9663 30.9611 23.3785C30.9611 20.7907 28.8633 18.6929 26.2755 18.6929C23.6877 18.6929 21.5898 20.7907 21.5898 23.3785C21.5898 25.9663 23.6877 28.0641 26.2755 28.0641Z" fill="white"/>
<path d="M13.1565 32.6946L12.1196 32.4295C4.41787 30.4844 0 27.1769 0 23.368C0 19.5565 4.4205 16.2516 12.1196 14.3065L13.1565 14.044L13.4479 15.0704C14.2275 17.7558 15.2224 20.3781 16.4299 22.9008L16.653 23.368L16.4299 23.8353C15.2224 26.3631 14.2223 28.9829 13.4479 31.6709L13.1565 32.6946ZM11.6419 16.6953C5.79075 18.3438 2.19712 20.8585 2.19712 23.368C2.19712 25.8723 5.78813 28.3896 11.6419 30.0355C12.3585 27.757 13.2248 25.5284 14.2275 23.368C13.2169 21.2024 12.3533 18.9738 11.6419 16.6953ZM39.3934 32.6946L39.1046 31.6656C38.3224 28.9776 37.3275 26.3579 36.12 23.8326L35.8969 23.368L36.12 22.8981C37.3275 20.3755 38.3224 17.7531 39.1046 15.0651L39.3934 14.0414L40.4303 14.3039C48.1346 16.249 52.5499 19.5539 52.5499 23.368C52.5499 27.1795 48.132 30.4844 40.4303 32.4295L39.3934 32.6946ZM38.3171 23.368C39.3671 25.6413 40.2412 27.8778 40.908 30.0355C46.7617 28.3896 50.3554 25.8723 50.3554 23.368C50.3554 20.8585 46.7644 18.3464 40.908 16.6953C40.1914 18.9738 39.3278 21.2024 38.3171 23.368Z" fill="white"/>
<path d="M11.6252 16.6848L11.3365 15.6611C9.16823 8.0276 9.82448 2.55972 13.1399 0.65397C16.3817 -1.2229 21.5976 0.99522 27.0602 6.59959L27.8057 7.36609L27.0602 8.12997C25.1204 10.1486 23.3459 12.3195 21.7577 14.6242L21.4611 15.0495L20.9466 15.0915C18.1562 15.3093 15.3842 15.7582 12.6595 16.4276L11.6252 16.6848ZM15.778 2.17122C15.19 2.17122 14.6702 2.29984 14.2319 2.55184C12.0584 3.80397 11.6751 8.16409 13.1714 14.0493C15.5102 13.5322 17.8701 13.1621 20.2484 12.9547C21.6265 10.9991 23.128 9.14059 24.745 7.38184C21.3246 4.05597 18.0959 2.17122 15.778 2.17122ZM36.7701 46.7542C33.6516 46.7542 29.6459 44.4022 25.4879 40.134L24.745 39.3701L25.4879 38.6088C27.4277 36.5876 29.2049 34.4115 30.793 32.1067L31.087 31.6867L31.5962 31.6368C34.3919 31.4216 37.1665 30.9753 39.886 30.306L40.9229 30.0435L41.2142 31.0698C43.372 38.6981 42.7184 44.1738 39.4082 46.0796C38.6076 46.5337 37.6994 46.7673 36.7701 46.7542ZM27.8057 39.3517C31.2235 42.6776 34.4549 44.565 36.7701 44.565C37.3607 44.565 37.8805 44.4337 38.3162 44.1843C40.4924 42.9296 40.8782 38.5616 39.3767 32.6763C37.0405 33.1961 34.678 33.5688 32.2945 33.7762C30.9242 35.7318 29.4227 37.5956 27.8057 39.3517Z" fill="white"/>
<path d="M40.9235 16.6847L39.8866 16.4248C37.1671 15.7528 34.3925 15.3065 31.5968 15.0887L31.0876 15.044L30.7936 14.6188C29.2081 12.314 27.431 10.1432 25.4885 8.12453L24.7456 7.36066L25.4885 6.59941C30.9485 0.997655 36.1617 -1.22047 39.4088 0.65378C42.7216 2.56216 43.3805 8.03003 41.2148 15.6609L40.9235 16.6847ZM32.2951 12.9545C34.7993 13.1777 37.1723 13.553 39.3773 14.0492C40.8762 8.16391 40.493 3.80378 38.3168 2.54903C36.1538 1.2969 32.0825 3.21316 27.8063 7.38166C29.4233 9.14041 30.9248 10.9989 32.2951 12.9545ZM15.7786 46.754C14.852 46.7672 13.9437 46.5335 13.1405 46.0794C9.82508 44.1737 9.16883 38.7005 11.3345 31.0697L11.618 30.0433L12.6548 30.3058C15.1853 30.9437 17.9731 31.3925 20.9446 31.6367L21.4538 31.6865L21.7505 32.1065C23.336 34.4113 25.1105 36.5874 27.053 38.6087L27.7985 39.3699L27.053 40.1338C22.8976 44.4047 18.8918 46.754 15.7786 46.754ZM13.172 32.6788C11.6757 38.564 12.059 42.932 14.2325 44.1868C16.3981 45.4205 20.4563 43.5174 24.7456 39.3515C23.1286 37.5928 21.6271 35.7317 20.249 33.7787C17.8707 33.5713 15.5082 33.1985 13.172 32.6788Z" fill="white"/>
<path d="M26.2763 34.057C24.4729 34.057 22.6223 33.9809 20.7638 33.826L20.2493 33.7814L19.9527 33.3561C18.9079 31.8546 17.9209 30.3032 16.9969 28.7125C16.0808 27.1191 15.2329 25.4942 14.448 23.8326L14.2275 23.368L14.448 22.8981C15.2329 21.2391 16.0808 19.6116 16.9969 18.0208C17.9078 16.4563 18.9027 14.8918 19.9527 13.3746L20.2493 12.9546L20.7638 12.9073C24.4309 12.6002 28.1164 12.6002 31.7835 12.9073L32.2928 12.9572L32.5894 13.3772C34.6868 16.3933 36.5348 19.5775 38.1019 22.9007L38.3198 23.3706L38.1019 23.8352C36.5348 27.1637 34.692 30.3479 32.5894 33.3587L32.2928 33.784L31.7835 33.8286C29.9303 33.9782 28.077 34.057 26.2763 34.057ZM21.462 31.684C24.7039 31.9281 27.8487 31.9281 31.0879 31.684C32.8992 29.0327 34.503 26.2555 35.8969 23.368C34.5083 20.4752 32.8992 17.6953 31.0879 15.052C27.8828 14.8052 24.6672 14.8052 21.462 15.052C19.6534 17.6953 18.0364 20.4726 16.653 23.368C18.0469 26.2555 19.6587 29.0327 21.462 31.684Z" fill="white"/>
</svg>
