<svg width="23" height="18" viewBox="0 0 23 18" fill="none" xmlns="http://www.w3.org/2000/svg">
<path d="M12 14.45C12.4734 14.45 12.8571 14.0694 12.8571 13.6C12.8571 13.1306 12.4734 12.75 12 12.75C11.5266 12.75 11.1428 13.1306 11.1428 13.6C11.1428 14.0694 11.5266 14.45 12 14.45Z" fill="white"/>
<path d="M16.2857 0H7.71429C6.76886 0 6 0.76245 6 1.7V15.3C6 16.2376 6.76886 17 7.71429 17H16.2857C17.2311 17 18 16.2376 18 15.3V1.7C18 0.76245 17.2311 0 16.2857 0ZM7.71429 15.3V1.7H16.2857L16.2874 15.3H7.71429Z" fill="white"/>
<path d="M21.3286 17.0167C21.3523 16.9929 21.3731 16.9663 21.3907 16.937L22.27 15.4714C22.3087 15.4069 22.3293 15.3331 22.3293 15.258L22.3293 8.05169C22.3293 7.8301 22.2431 7.62199 22.0866 7.46547C21.93 7.30895 21.7219 7.22278 21.5003 7.22278L20.5706 7.22278C20.1274 7.22278 19.7417 7.60851 19.7417 8.05169L19.7417 15.258C19.7417 15.3331 19.7622 15.4069 19.8006 15.4711L20.6799 16.9367C20.7547 17.0618 20.8898 17.1377 21.0355 17.138C21.1466 17.1383 21.2518 17.0935 21.3286 17.0167ZM20.5706 8.05169L21.5003 8.05169L21.5003 8.98143H20.5706L20.5706 8.05169ZM20.5706 15.1431L20.5706 9.81033L21.5003 9.81033L21.5001 15.1434L21.0352 15.9178L20.5706 15.1431Z" fill="white"/>
<path d="M4.79175 15.6979L4.79175 8.30204C4.79175 7.81371 4.38062 7.41663 3.87508 7.41663H1.12508C0.619542 7.41663 0.208417 7.81371 0.208417 8.30204L0.208417 15.6979C0.208417 16.1862 0.619542 16.5833 1.12508 16.5833H3.87508C4.38062 16.5833 4.79175 16.1862 4.79175 15.6979ZM1.12508 15.6979L1.12508 8.30204C1.12508 8.27829 1.13242 8.26204 1.13242 8.25496C1.13242 8.25204 1.1315 8.25038 1.12875 8.24996L3.854 8.24496C3.85858 8.24788 3.87508 8.26663 3.87508 8.30204V9.08329H2.50008V9.91663H3.87508V10.75H2.04175L2.04175 11.5833H3.87508L3.87508 12.4166H2.50008V13.25H3.87508V14.0833H2.04175V14.9166H3.87508V15.6979C3.87462 15.7308 3.86225 15.7487 3.87142 15.75L1.14617 15.755C1.14158 15.752 1.12508 15.7333 1.12508 15.6979Z" fill="white"/>
</svg>
