<svg width="50" height="50" viewBox="0 0 50 50" fill="none" xmlns="http://www.w3.org/2000/svg">
<g clip-path="url(#clip0)">
<path d="M25 0C20.0555 0 15.222 1.46622 11.1108 4.21326C6.99953 6.9603 3.79521 10.8648 1.90302 15.4329C0.010832 20.0011 -0.484251 25.0277 0.480379 29.8773C1.44501 34.7268 3.82603 39.1814 7.32234 42.6777C10.8187 46.174 15.2732 48.555 20.1228 49.5196C24.9723 50.4843 29.9989 49.9892 34.5671 48.097C39.1353 46.2048 43.0397 43.0005 45.7868 38.8893C48.5338 34.778 50 29.9445 50 25C49.993 18.3717 47.3568 12.017 42.6699 7.33007C37.9831 2.64317 31.6283 0.00700293 25 0V0ZM2.51324 25C2.51086 21.8478 3.17343 18.7306 4.45768 15.8519L15.1905 45.2381C11.3921 43.3942 8.18951 40.5181 5.94941 36.939C3.70931 33.3598 2.52215 29.2223 2.52382 25H2.51324ZM25 47.4868C22.8506 47.4863 20.7123 47.1772 18.6508 46.5688L25.3968 26.9656L32.3042 45.8942C32.3511 46.0008 32.405 46.1042 32.4656 46.2037C30.0674 47.049 27.5429 47.4802 25 47.4788V47.4868ZM28.0979 14.4603C29.4497 14.3889 30.6693 14.246 30.6693 14.246C31.881 14.1032 31.7275 12.3228 30.5265 12.3942C30.5265 12.3942 26.8863 12.6799 24.5344 12.6799C22.3281 12.6799 18.6164 12.3942 18.6164 12.3942C17.4048 12.3228 17.2619 14.1746 18.4736 14.246C18.4736 14.246 19.6191 14.3889 20.8307 14.4603L24.3386 24.0556L19.418 38.8069L11.2328 14.4683C12.5873 14.3968 13.8069 14.254 13.8069 14.254C15.0159 14.1111 14.8651 12.3307 13.6614 12.4021C13.6614 12.4021 10.0212 12.6878 7.67197 12.6878C7.24869 12.6878 6.75398 12.6878 6.22488 12.6614C8.01349 9.94375 10.3705 7.64659 13.1332 5.92847C15.896 4.21035 18.9986 3.11218 22.2271 2.70976C25.4555 2.30733 28.7328 2.61025 31.8328 3.59759C34.9327 4.58493 37.7815 6.23318 40.1826 8.42857C40.0873 8.42857 39.9921 8.41006 39.8915 8.41006C37.6852 8.41006 36.1164 10.3333 36.1164 12.3995C36.1164 14.2513 37.1746 15.8201 38.3254 17.672C39.1799 19.1693 40.1773 21.0926 40.1773 23.8704C40.1773 25.7937 39.4392 28.0265 38.4683 31.1376L36.2196 38.6243L28.0979 14.4603ZM44.7222 14.2169C47.5297 19.3579 48.2203 25.3913 46.6471 31.0337C45.074 36.676 41.3613 41.4818 36.299 44.4286L43.164 24.5873C44.4471 21.381 44.8757 18.8175 44.8757 16.537C44.8775 15.7611 44.8263 14.9859 44.7222 14.2169Z" fill="white"/>
</g>
<defs>
<clipPath id="clip0">
<rect width="50" height="50" fill="white"/>
</clipPath>
</defs>
</svg>
